<svg width="22" height="20" viewBox="0 0 22 20" fill="none" xmlns="http://www.w3.org/2000/svg">
<path d="M5.79167 15.9677L2.36458 18.8108C2.24318 18.9102 2.09577 18.9734 1.93948 18.9933C1.78318 19.0131 1.62439 18.9888 1.48153 18.923C1.33868 18.8572 1.21761 18.7527 1.13238 18.6216C1.04715 18.4906 1.00125 18.3383 1 18.1824V1.8241C1 1.60553 1.0878 1.39592 1.24408 1.24137C1.40036 1.08682 1.61232 1 1.83333 1H20.1667C20.3877 1 20.5996 1.08682 20.7559 1.24137C20.9122 1.39592 21 1.60553 21 1.8241V15.0097C21 15.2282 20.9122 15.4378 20.7559 15.5924C20.5996 15.7469 20.3877 15.8338 20.1667 15.8338H6.17708L5.79167 15.9677Z" stroke="#00BCD4" stroke-linecap="round" stroke-linejoin="round"/>
<path d="M7.66663 6.76883H14.3333" stroke="#00BCD4" stroke-linecap="round" stroke-linejoin="round"/>
<path d="M7.66663 10.0649H14.3333" stroke="#00BCD4" stroke-linecap="round" stroke-linejoin="round"/>
</svg>
