<svg width="26" height="22" viewBox="0 0 26 22" fill="none" xmlns="http://www.w3.org/2000/svg">
<path fill-rule="evenodd" clip-rule="evenodd" d="M14.6233 20.9646L11.9923 14.6345C11.8764 14.3557 12.0345 14.0328 12.3454 13.9133C12.6562 13.7938 13.0021 13.9229 13.118 14.2016L15.7491 20.5321C15.945 21.0045 16.6883 20.9763 16.8914 20.4888L24.6686 1.83793C24.8509 1.40063 24.418 0.984189 23.9325 1.12996L3.23079 7.34577C2.68812 7.5089 2.62148 8.18852 3.12837 8.39158L11.6364 11.7991L22.1053 2.66079C22.351 2.44635 22.7309 2.44641 22.9538 2.66093C23.1767 2.87544 23.1583 3.22318 22.9127 3.43761L12.1425 12.8389C11.9502 13.0067 11.6756 13.0431 11.4585 12.9481L2.60245 9.40119C1.10252 8.80032 1.29998 6.78664 2.90615 6.30378L23.6081 0.0879168C25.0467 -0.344078 26.329 0.889287 25.7886 2.1853L18.0115 20.836C17.4092 22.282 15.2043 22.3656 14.6233 20.9646Z" fill="#00BCD4"/>
</svg>
