<svg width="25" height="25" viewBox="0 0 25 25" fill="none" xmlns="http://www.w3.org/2000/svg">
<path d="M12.5 24C18.8513 24 24 18.8513 24 12.5C24 6.14873 18.8513 1 12.5 1C6.14873 1 1 6.14873 1 12.5C1 18.8513 6.14873 24 12.5 24Z" stroke="white" stroke-linecap="round" stroke-linejoin="round"/>
<path d="M12.5 16.3333C15.1464 16.3333 17.2917 14.188 17.2917 11.5417C17.2917 8.8953 15.1464 6.75 12.5 6.75C9.85368 6.75 7.70837 8.8953 7.70837 11.5417C7.70837 14.188 9.85368 16.3333 12.5 16.3333Z" stroke="white" stroke-linecap="round" stroke-linejoin="round"/>
<path d="M4.80945 21.0529C5.53049 19.6327 6.63071 18.4399 7.98817 17.6067C9.34563 16.7734 10.9073 16.3324 12.5001 16.3324C14.0928 16.3324 15.6545 16.7734 17.012 17.6067C18.3694 18.4399 19.4697 19.6327 20.1907 21.0529" stroke="white" stroke-linecap="round" stroke-linejoin="round"/>
</svg>
