<svg width="35" height="30" viewBox="0 0 35 30" fill="none" xmlns="http://www.w3.org/2000/svg">
<rect width="35" height="30" rx="10" transform="matrix(1 0 0 -1 0 30)" fill="#00BCD4" fill-opacity="0.18"/>
<path fill-rule="evenodd" clip-rule="evenodd" d="M18.9494 16.2734L23.8895 11.8021C25.1031 10.7036 25.1031 8.92242 23.8895 7.82393C22.6758 6.72546 20.7089 6.72546 19.4944 7.82381L13.6338 13.1283C13.6289 13.1327 13.6241 13.1373 13.6194 13.1419L10.2994 16.1469C8.56686 17.715 8.56686 20.2565 10.2994 21.8246C12.0311 23.392 14.839 23.392 16.5707 21.8246L24.8701 14.3127C25.0433 14.156 25.0433 13.9018 24.8701 13.745C24.6969 13.5883 24.4161 13.5883 24.2429 13.745L15.9434 21.2569C14.5582 22.5108 12.3119 22.5108 10.9266 21.2569C9.54047 20.0023 9.54047 17.9692 10.9266 16.7146L19.7071 8.76728C19.712 8.76281 19.7168 8.75827 19.7215 8.75365L20.1215 8.39162C20.9895 7.60664 22.395 7.60664 23.2623 8.39162C24.1295 9.17659 24.1295 10.4494 23.2623 11.2344L18.8784 15.2023C18.8764 15.204 18.8745 15.2057 18.8726 15.2074L18.3206 15.7071L17.4018 16.5387C17.3993 16.541 17.3969 16.5432 17.3945 16.5455L14.0553 19.5684C13.7071 19.883 13.1422 19.883 12.7938 19.5682C12.4465 19.2533 12.4465 18.742 12.7943 18.4266L17.1954 14.444C17.3686 14.2873 17.3686 14.0331 17.1954 13.8763C17.0222 13.7195 16.7414 13.7195 16.5682 13.8763L12.1669 17.8591C11.4731 18.4882 11.4731 19.5071 12.1666 20.1359C12.8618 20.7641 13.9875 20.7641 14.6822 20.1363L18.9494 16.2734Z" fill="#00BCD4"/>
</svg>
