<svg width="23" height="17" viewBox="0 0 23 17" fill="none" xmlns="http://www.w3.org/2000/svg">
<path d="M11.5001 12.7074C13.4997 12.7074 15.1208 11.0694 15.1208 9.04878C15.1208 7.0282 13.4997 5.3902 11.5001 5.3902C9.50043 5.3902 7.87939 7.0282 7.87939 9.04878C7.87939 11.0694 9.50043 12.7074 11.5001 12.7074Z" stroke="#1A252F" stroke-linecap="round" stroke-linejoin="round"/>
<path d="M17.6553 6.85361C18.4987 6.85219 19.3307 7.04992 20.0851 7.43105C20.8394 7.81217 21.4952 8.36614 22.0001 9.04877" stroke="#1A252F" stroke-linecap="round" stroke-linejoin="round"/>
<path d="M1 9.04877C1.5049 8.36614 2.16068 7.81217 2.91504 7.43105C3.66939 7.04992 4.50144 6.85219 5.34483 6.85361" stroke="#1A252F" stroke-linecap="round" stroke-linejoin="round"/>
<path d="M6.28625 16C6.76312 15.0132 7.50469 14.1816 8.42649 13.5998C9.34828 13.0181 10.4132 12.7097 11.5 12.7097C12.5869 12.7097 13.6518 13.0181 14.5736 13.5998C15.4954 14.1816 16.237 15.0132 16.7138 16" stroke="#1A252F" stroke-linecap="round" stroke-linejoin="round"/>
<path d="M5.3448 6.85373C4.79504 6.8543 4.25647 6.69676 3.79202 6.39952C3.32758 6.10228 2.95644 5.67762 2.72196 5.17516C2.48749 4.6727 2.39938 4.11319 2.46791 3.56201C2.53644 3.01082 2.75879 2.49073 3.10899 2.06249C3.45918 1.63426 3.92275 1.31557 4.44553 1.14366C4.9683 0.971759 5.5287 0.953736 6.06124 1.0917C6.59378 1.22967 7.07647 1.51793 7.4529 1.92279C7.82933 2.32766 8.08396 2.83241 8.18705 3.37808" stroke="#1A252F" stroke-linecap="round" stroke-linejoin="round"/>
<path d="M14.8129 3.37808C14.9159 2.83241 15.1706 2.32766 15.547 1.92279C15.9234 1.51793 16.4061 1.22967 16.9387 1.0917C17.4712 0.953736 18.0316 0.971759 18.5544 1.14366C19.0772 1.31557 19.5407 1.63426 19.8909 2.06249C20.2411 2.49073 20.4635 3.01082 20.532 3.56201C20.6005 4.11319 20.5124 4.6727 20.2779 5.17516C20.0435 5.67762 19.6723 6.10228 19.2079 6.39952C18.7434 6.69676 18.2049 6.8543 17.6551 6.85373" stroke="#1A252F" stroke-linecap="round" stroke-linejoin="round"/>
</svg>
