<svg width="238" height="112" viewBox="0 0 238 112" fill="none" xmlns="http://www.w3.org/2000/svg">
<path d="M-6.10352e-05 28.9742C-6.10352e-05 23.4276 4.86907 18.9312 10.8754 18.9312C16.8818 18.9312 21.7509 23.4276 21.7509 28.9742V100.391C21.7509 105.938 16.8818 110.434 10.8754 110.434C4.86907 110.434 -6.10352e-05 105.938 -6.10352e-05 100.391V28.9742Z" fill="white"/>
<path d="M26.5841 38.5786C26.5841 32.0846 31.4532 26.8203 37.4596 26.8203C43.466 26.8203 48.3351 32.0846 48.3351 38.5786V98.6766C48.3351 105.171 43.466 110.435 37.4596 110.435C31.4532 110.435 26.5841 105.171 26.5841 98.6766V38.5786Z" fill="white"/>
<path d="M53.1682 9.93909C53.1682 4.44988 58.0373 0 64.0437 0C70.0501 0 74.9192 4.44989 74.9192 9.9391V100.495C74.9192 105.985 70.0501 110.434 64.0437 110.434C58.0373 110.434 53.1682 105.985 53.1682 100.495V9.93909Z" fill="white"/>
<path d="M112.532 105.818C108.116 105.818 104.121 104.85 100.546 102.916C97.0134 100.939 94.2377 98.2477 92.219 94.8411C90.2003 91.3925 89.191 87.5233 89.191 83.2336C89.191 78.9439 90.2003 75.0958 92.219 71.6892C94.2377 68.2406 97.0344 65.549 100.609 63.6144C104.184 61.6378 108.179 60.6495 112.595 60.6495C116.044 60.6495 119.198 61.2383 122.058 62.4158C124.918 63.5513 127.357 65.2546 129.376 67.5256L125.275 71.5C121.953 68.0093 117.81 66.264 112.848 66.264C109.567 66.264 106.602 66.9999 103.953 68.4719C101.303 69.9439 99.2214 71.9836 97.7073 74.5911C96.2354 77.1565 95.4994 80.0373 95.4994 83.2336C95.4994 86.4299 96.2354 89.3318 97.7073 91.9392C99.2214 94.5047 101.303 96.5233 103.953 97.9953C106.602 99.4673 109.567 100.203 112.848 100.203C117.768 100.203 121.911 98.4369 125.275 94.9042L129.376 98.8785C127.357 101.15 124.897 102.874 121.995 104.051C119.135 105.229 115.981 105.818 112.532 105.818Z" fill="#F5F5F5"/>
<path d="M180.162 61.1541V92.1916C180.162 98.5841 178.459 103.484 175.052 106.89C171.645 110.297 166.935 112 160.921 112C157.304 112 154.003 111.432 151.017 110.297C148.073 109.203 145.592 107.626 143.573 105.565L146.286 100.645C150.155 104.43 155.033 106.322 160.921 106.322C169.585 106.322 173.917 101.696 173.917 92.4439V87.9649C170.973 92.2547 166.409 94.3995 160.227 94.3995C154.676 94.3995 150.365 92.8014 147.295 89.6051C144.225 86.4089 142.69 81.8458 142.69 75.9158V61.1541H148.998V75.6635C148.998 79.9532 150.05 83.2126 152.152 85.4416C154.255 87.6705 157.178 88.785 160.921 88.785C164.959 88.785 168.134 87.6075 170.447 85.2523C172.76 82.8972 173.917 79.3855 173.917 74.7172V61.1541H180.162Z" fill="#F5F5F5"/>
<path d="M237.638 61.1541V105.313H231.456V66.6425H205.844V105.313H199.599V61.1541H237.638Z" fill="#F5F5F5"/>
</svg>
