<svg width="50" height="50" viewBox="0 0 50 50" fill="none" xmlns="http://www.w3.org/2000/svg">
<circle cx="25" cy="25" r="25" fill="#EFEDED"/>
<path d="M24.5001 28.7074C26.4997 28.7074 28.1208 27.0694 28.1208 25.0488C28.1208 23.0282 26.4997 21.3902 24.5001 21.3902C22.5004 21.3902 20.8794 23.0282 20.8794 25.0488C20.8794 27.0694 22.5004 28.7074 24.5001 28.7074Z" stroke="#1A252F" stroke-linecap="round" stroke-linejoin="round"/>
<path d="M30.6553 22.8536C31.4987 22.8522 32.3307 23.0499 33.0851 23.431C33.8394 23.8121 34.4952 24.3661 35.0001 25.0487" stroke="#1A252F" stroke-linecap="round" stroke-linejoin="round"/>
<path d="M14 25.0487C14.5049 24.3661 15.1607 23.8121 15.915 23.431C16.6694 23.0499 17.5014 22.8522 18.3448 22.8536" stroke="#1A252F" stroke-linecap="round" stroke-linejoin="round"/>
<path d="M19.2863 32C19.7631 31.0132 20.5047 30.1816 21.4265 29.5998C22.3483 29.0181 23.4132 28.7097 24.5 28.7097C25.5869 28.7097 26.6518 29.0181 27.5736 29.5998C28.4954 30.1816 29.237 31.0132 29.7138 32" stroke="#1A252F" stroke-linecap="round" stroke-linejoin="round"/>
<path d="M18.3448 22.8537C17.795 22.8543 17.2565 22.6968 16.792 22.3995C16.3276 22.1023 15.9564 21.6776 15.722 21.1752C15.4875 20.6727 15.3994 20.1132 15.4679 19.562C15.5364 19.0108 15.7588 18.4907 16.109 18.0625C16.4592 17.6343 16.9227 17.3156 17.4455 17.1437C17.9683 16.9718 18.5287 16.9537 19.0612 17.0917C19.5938 17.2297 20.0765 17.5179 20.4529 17.9228C20.8293 18.3277 21.084 18.8324 21.187 19.3781" stroke="#1A252F" stroke-linecap="round" stroke-linejoin="round"/>
<path d="M27.8129 19.3781C27.9159 18.8324 28.1706 18.3277 28.547 17.9228C28.9234 17.5179 29.4061 17.2297 29.9387 17.0917C30.4712 16.9537 31.0316 16.9718 31.5544 17.1437C32.0772 17.3156 32.5407 17.6343 32.8909 18.0625C33.2411 18.4907 33.4635 19.0108 33.532 19.562C33.6005 20.1132 33.5124 20.6727 33.2779 21.1752C33.0435 21.6776 32.6723 22.1023 32.2079 22.3995C31.7434 22.6968 31.2049 22.8543 30.6551 22.8537" stroke="#1A252F" stroke-linecap="round" stroke-linejoin="round"/>
</svg>

